HIERARCHY
ROOT root     
{
	OFFSET 0.0000 0.0000 0.0000
	CHANNELS 6 Xposition Yposition Zposition Zrotation Yrotation Xrotation
	JOINT pelvis   
	{
		OFFSET 0.0000 0.0000 0.0000
		CHANNELS 3 Zrotation Yrotation Xrotation
		JOINT thorax   
		{
			OFFSET 0.0000 23.0750 -5.0000
			CHANNELS 3 Zrotation Yrotation Xrotation
			JOINT rclavicle
			{
				OFFSET 0.0000 28.0009 0.0000
				CHANNELS 3 Zrotation Yrotation Xrotation
				JOINT rhumerus 
				{
					OFFSET -18.5725 5.5939 0.0000
					CHANNELS 3 Zrotation Yrotation Xrotation
					JOINT rradius  
					{
						OFFSET -24.8459 0.0000 0.0000
						CHANNELS 3 Zrotation Yrotation Xrotation
						JOINT rhand    
						{
							OFFSET -24.5477 0.0000 0.0000
							CHANNELS 3 Zrotation Yrotation Xrotation
							End Site
							{
								OFFSET -8.1826 0.0000 0.0000
							}
						}
					}
				}
			}
			JOINT lclavicle
			{
				OFFSET 0.0000 28.0009 0.0000
				CHANNELS 3 Zrotation Yrotation Xrotation
				JOINT lhumerus 
				{
					OFFSET 18.5725 5.5939 0.0000
					CHANNELS 3 Zrotation Yrotation Xrotation
					JOINT lradius  
					{
						OFFSET 24.8459 0.0000 0.0000
						CHANNELS 3 Zrotation Yrotation Xrotation
						JOINT lhand    
						{
							OFFSET 24.5477 0.0000 0.0000
							CHANNELS 3 Zrotation Yrotation Xrotation
							End Site
							{
								OFFSET 8.1826 0.0000 0.0000
							}
						}
					}
				}
			}
			JOINT head     
			{
				OFFSET 0.0000 35.2030 0.0000
				CHANNELS 3 Zrotation Yrotation Xrotation
				End Site
				{
					OFFSET 0.0000 11.7343 0.0000
				}
			}
		}
		JOINT rfemur   
		{
			OFFSET -8.2817 0.0000 0.0000
			CHANNELS 3 Zrotation Yrotation Xrotation
			JOINT rtibia   
			{
				OFFSET 0.0000 -43.3627 0.0000
				CHANNELS 3 Zrotation Yrotation Xrotation
				JOINT rfoot    
				{
					OFFSET 0.0000 -38.2947 0.0000
					CHANNELS 3 Zrotation Yrotation Xrotation
					JOINT rtoes    
					{
						OFFSET 0.0000 0.0000 16.6054
						CHANNELS 3 Zrotation Yrotation Xrotation
						End Site
						{
							OFFSET 0.0000 0.0000 5.5351
						}
					}
				}
			}
		}
		JOINT lfemur   
		{
			OFFSET 8.2817 0.0000 0.0000
			CHANNELS 3 Zrotation Yrotation Xrotation
			JOINT ltibia   
			{
				OFFSET 0.0000 -43.3627 0.0000
				CHANNELS 3 Zrotation Yrotation Xrotation
				JOINT lfoot    
				{
					OFFSET 0.0000 -38.2947 0.0000
					CHANNELS 3 Zrotation Yrotation Xrotation
					JOINT ltoes    
					{
						OFFSET 0.0000 0.0000 16.6054
						CHANNELS 3 Zrotation Yrotation Xrotation
						End Site
						{
							OFFSET 0.0000 0.0000 5.5351
						}
					}
				}
			}
		}
	}
}
MOTION
Frames: 10
Frame Time: .0333333
86.616 83.722 5.2611 51.8636 -87.6937 -10.2135 0 -0 0 0.421706 -7.90335 2.28225 23.5629 -9.41605 4.24158e-05 56.8193 -3.62288 -38.0583 -0 15.5635 -0 -17.7625 12.0771 -1.89403 -20.9071 11.2647 -1.26672e-05 -52.8613 5.97123 -22.6846 0 -20.1655 0 24.9826 -2.76395 -0.61239 3.68748 1.5964 -37.1732 1.94347 -6.85859 -57.2936 -0 -0 31.905 -1.77031e-07 -8.43414 -1.20729 0.179007 2.74575e-06 -55.6829 -4.38943 2.48438 -58.1528 -0 -0 31.9773 -7.36437e-06 14.321 -2.50007 -0.638004 -1.65929e-07 -40.2666 
86.793 83.523 5.298 53.4599 -87.6611 -11.2444 0 -0 0 0.367192 -7.89204 2.25153 23.5822 -9.36361 1.14712e-05 56.973 -3.38664 -37.7723 -0 15.6467 -0 -17.7231 12.0493 -1.88539 -20.9171 11.176 -8.88175e-05 -52.947 5.76796 -22.6253 0 -20.2247 0 24.9607 -2.70093 -0.597905 3.68992 1.65431 -37.651 1.92913 -6.86692 -58.5026 -0 -0 33.0004 -5.47995e-06 -8.41709 -1.70809 0.252699 2.61131e-06 -55.5207 -4.54632 2.43983 -59.2423 -0 -0 32.8574 -1.11936e-05 14.2404 -2.98153 -0.756307 -2.59034e-06 -40.0599 
86.973 83.302 5.3383 55.2649 -87.6203 -12.4836 0 -0 0 0.2923 -7.89574 2.23236 23.5996 -9.31431 6.0896e-05 57.1491 -3.15167 -37.4885 -0 15.7416 -0 -17.6646 12.0309 -1.87614 -20.9236 11.0797 -4.52132e-05 -53.0448 5.58928 -22.5691 0 -20.3447 0 24.9265 -2.62198 -0.579601 3.69157 1.7104 -38.1189 1.9111 -6.90515 -59.7731 -0 -0 34.2048 1.51667e-06 -8.37931 -2.26666 0.333794 -5.92415e-06 -55.3463 -4.72241 2.37949 -60.3831 -0 -0 33.8332 1.91054e-05 14.1557 -3.51968 -0.88709 -2.03022e-06 -39.868 
87.155 83.053 5.3824 57.2606 -87.539 -13.8981 0 -0 0 0.196402 -7.91748 2.22266 23.6191 -9.27429 -8.66532e-05 57.3443 -2.91617 -37.2115 -0 15.8447 -0 -17.5825 12.0254 -1.86648 -20.9229 10.989 -9.53183e-05 -53.1556 5.42287 -22.5132 0 -20.5228 0 24.8855 -2.5398 -0.56051 3.69102 1.76251 -38.5743 1.88818 -6.97633 -61.1055 -0 -0 35.522 -8.1886e-06 -8.32209 -2.88345 0.421605 -5.24829e-07 -55.1642 -4.91576 2.29657 -61.5771 -0 -0 34.9133 -9.26853e-06 14.0739 -4.11359 -1.03019 -2.89596e-06 -39.6957 
87.34 82.774 5.4298 59.2707 -87.4474 -15.3326 0 -0 0 0.082806 -7.95651 2.21997 23.6372 -9.24658 1.11837e-05 57.5554 -2.67957 -36.9501 -0 15.9545 -0 -17.4806 12.0292 -1.85607 -20.9155 10.9078 3.51659e-05 -53.2796 5.26585 -22.4564 0 -20.7604 0 24.8407 -2.46537 -0.543004 3.6869 1.80759 -39.0131 1.85934 -7.07734 -62.5018 -0 -0 36.9574 5.28475e-06 -8.25254 -3.55568 0.515398 8.14196e-06 -54.981 -5.12187 2.1876 -62.8283 -0 -0 36.1063 -1.78525e-05 13.996 -4.75931 -1.18469 1.50344e-07 -39.5436 
87.526 82.462 5.4781 61.1088 -87.3305 -16.589 0 -0 0 -0.035305 -8.00361 2.22552 23.6577 -9.24061 -2.55978e-05 57.7753 -2.43724 -36.7104 -0 16.0645 -0 -17.3585 12.0426 -1.84493 -20.9018 10.8409 -4.56201e-07 -53.42 5.11005 -22.4001 0 -21.0484 0 24.7967 -2.4134 -0.530598 3.67624 1.8397 -39.4383 1.82671 -7.19324 -63.9481 -0 -0 38.499 -2.56508e-06 -8.18632 -4.27603 0.614504 2.5146e-06 -54.8052 -5.33113 2.05998 -64.1402 -0 -0 37.4242 -1.07076e-05 13.9213 -5.45353 -1.34953 -3.18014e-06 -39.4084 
87.714 82.112 5.5308 62.9118 -87.189 -17.8058 0 -0 0 -0.1689 -8.07411 2.22058 23.684 -9.22303 -3.59304e-06 58.003 -2.24123 -36.5059 -0 16.2033 -0 -17.216 12.0541 -1.83136 -20.8908 10.7536 5.76087e-05 -53.5685 5.02445 -22.3502 1.20569e-07 -21.4285 -6.37232e-07 24.7584 -2.36834 -0.519907 3.65984 1.86229 -39.8393 1.78024 -7.33753 -65.4684 -0 -0 40.1682 2.73366e-06 -8.12313 -5.04169 0.718614 2.50795e-06 -54.6444 -5.54408 1.88875 -65.5153 -0 -0 38.8594 -1.19631e-05 13.8679 -6.18036 -1.52247 2.4687e-05 -39.2971 
87.902 81.722 5.5823 64.366 -87.0213 -18.6671 0 -0 0 -0.294094 -8.14713 2.21933 23.7146 -9.23226 5.02584e-05 58.2251 -2.04188 -36.3284 -0 16.3399 -0 -17.0614 12.0667 -1.81659 -20.8757 10.6962 -1.02274e-05 -53.7259 4.92052 -22.2971 1.23156e-07 -21.8321 -6.38583e-07 24.7335 -2.36736 -0.519086 3.63427 1.86871 -40.2306 1.72657 -7.47972 -67.0352 -0 -0 41.9418 -1.26324e-06 -8.08752 -5.84275 0.828795 7.12187e-07 -54.4985 -5.74508 1.69811 -66.9555 -0 -0 40.4253 3.4665e-05 13.8258 -6.93921 -1.70309 -3.33771e-06 -39.1953 
88.09 81.286 5.6325 65.493 -86.8539 -19.2062 0 -0 0 -0.40869 -8.2241 2.21593 23.754 -9.25591 5.60549e-06 58.4378 -1.86276 -36.1822 -0 16.4811 -0 -16.8979 12.0772 -1.80052 -20.8623 10.6576 -8.34782e-05 -53.8893 4.81933 -22.2452 0 -22.2593 0 24.7256 -2.40635 -0.527508 3.59912 1.85979 -40.6124 1.66214 -7.61597 -68.6528 -0 -0 43.8194 -3.2174e-06 -8.08848 -6.674 0.946195 -2.7816e-06 -54.3694 -5.92865 1.48316 -68.4617 -0 -0 42.1209 -3.28832e-05 13.8053 -7.71956 -1.8904 -9.84594e-06 -39.0999 
88.277 80.802 5.6778 66.1656 -86.6868 -19.2953 0 -0 0 -0.496396 -8.29237 2.21727 23.8003 -9.30057 -2.56618e-07 58.6314 -1.69516 -36.0641 -0 16.6225 -0 -16.7344 12.082 -1.78354 -20.8537 10.6403 -7.26396e-05 -54.0528 4.70775 -22.1976 0 -22.687 0 24.7366 -2.48971 -0.545999 3.55185 1.83289 -40.9965 1.59157 -7.72803 -70.3036 -0 -0 45.7877 -8.43801e-06 -8.13992 -7.52969 1.07381 2.22078e-06 -54.2511 -6.08355 1.25927 -70.0305 -0 -0 43.9453 -3.47188e-05 13.8006 -8.51797 -2.08361 -1.73698e-06 -38.9977 
